<?xml version="1.0" encoding="utf-8"?>
<!-- Generator: Adobe Illustrator 26.0.1, SVG Export Plug-In . SVG Version: 6.00 Build 0)  -->
<svg version="1.1" id="Layer_1" xmlns="http://www.w3.org/2000/svg" xmlns:xlink="http://www.w3.org/1999/xlink" x="0px" y="0px"
	 viewBox="0 0 24 24" style="enable-background:new 0 0 24 24;" xml:space="preserve">
<style type="text/css">
	.st0{fill:#68BD61;}
</style>
<path class="st0" d="M11.6,17.5c-0.1,0-0.3-0.1-0.4-0.1L10,16.2c-0.2-0.2-0.2-0.5,0-0.7s0.5-0.2,0.7,0l0.9,0.9l1.7-2.1
	c0.2-0.2,0.5-0.2,0.7-0.1c0.2,0.2,0.2,0.5,0.1,0.7L12,17.4C11.9,17.4,11.7,17.5,11.6,17.5L11.6,17.5z M10,6.9h4.1v1.4H10V6.9z M12,0
	C5.4,0,0,5.4,0,12s5.4,12,12,12s12-5.4,12-12S18.6,0,12,0z M18.8,17.1c0,0.8-0.6,1.4-1.4,1.4H6.5c-0.8,0-1.4-0.6-1.4-1.4v-4.8h5.5
	v1.4h2.7v-1.4h5.5V17.1z M18.8,11.7H5.2v-2c0-0.8,0.6-1.4,1.4-1.4h2V6.9c0-0.8,0.6-1.4,1.4-1.4h4c0.8,0,1.4,0.6,1.4,1.4v1.4h2
	c0.8,0,1.4,0.6,1.4,1.4V11.7z"/>
</svg>
