<?xml version="1.0" encoding="utf-8"?>
<!-- Generator: Adobe Illustrator 26.0.1, SVG Export Plug-In . SVG Version: 6.00 Build 0)  -->
<svg version="1.1" id="Layer_1" xmlns="http://www.w3.org/2000/svg" xmlns:xlink="http://www.w3.org/1999/xlink" x="0px"
	y="0px" viewBox="0 0 24 24" style="enable-background:new 0 0 24 24;" xml:space="preserve">
	<path d="M10,6.9h4.1v1.4H10V6.9z M12,0C5.4,0,0,5.4,0,12s5.4,12,12,12s12-5.4,12-12S18.6,0,12,0z M18.8,17.1c0,0.8-0.6,1.4-1.4,1.4
	H6.5c-0.8,0-1.4-0.6-1.4-1.4v-4.8h5.5v1.4h2.7v-1.4h5.5V17.1z M18.8,11.7H5.2v-2c0-0.8,0.6-1.4,1.4-1.4h2V6.9c0-0.8,0.6-1.4,1.4-1.4
	h4c0.8,0,1.4,0.6,1.4,1.4v1.4h2c0.8,0,1.4,0.6,1.4,1.4V11.7z M9.8,15.1c-0.3,0-0.6,0.3-0.6,0.6s0.3,0.6,0.6,0.6s0.6-0.3,0.6-0.6
	S10.1,15.1,9.8,15.1z M12,15.1c-0.3,0-0.6,0.3-0.6,0.6s0.3,0.6,0.6,0.6s0.6-0.3,0.6-0.6S12.3,15.1,12,15.1z M14.2,15.1
	c-0.3,0-0.6,0.3-0.6,0.6s0.3,0.6,0.6,0.6s0.6-0.3,0.6-0.6S14.5,15.1,14.2,15.1z" fill="#00b3d3" />
</svg>