<?xml version="1.0" encoding="utf-8"?>
<!-- Generator: Adobe Illustrator 26.0.1, SVG Export Plug-In . SVG Version: 6.00 Build 0)  -->
<svg version="1.1" id="Layer_1" xmlns="http://www.w3.org/2000/svg" xmlns:xlink="http://www.w3.org/1999/xlink" x="0px" y="0px"
	 viewBox="0 0 24 24" style="enable-background:new 0 0 24 24;" xml:space="preserve">
<style type="text/css">
	.st0{fill:#68BD61;}
</style>
<path class="st0" d="M12,0C5.4,0,0,5.4,0,12s5.4,12,12,12s12-5.4,12-12S18.6,0,12,0z M9.7,6.4c0.6-0.6,1.4-1,2.3-1s1.7,0.3,2.3,1
	c0.6,0.6,1,1.4,1,2.3s-0.3,1.7-1,2.3c-0.6,0.6-1.4,1-2.3,1s-1.7-0.3-2.3-1c-0.6-0.6-1-1.4-1-2.3C8.7,7.9,9.1,7,9.7,6.4z M17.4,18.5
	H6.6c0,0-1.1,0-1.1-1.1s1.1-4.3,6.5-4.3s6.5,3.3,6.5,4.3C18.5,18.5,17.4,18.5,17.4,18.5z M11.6,17.5c-0.1,0-0.3-0.1-0.4-0.1L10,16.2
	c-0.2-0.2-0.2-0.5,0-0.7s0.5-0.2,0.7,0l0.9,0.9l1.7-2.1c0.2-0.2,0.5-0.2,0.7-0.1c0.2,0.2,0.2,0.5,0.1,0.7L12,17.4
	C11.9,17.4,11.7,17.5,11.6,17.5L11.6,17.5z"/>
</svg>
