<svg width="19" height="16" viewBox="0 0 19 16" fill="none" xmlns="http://www.w3.org/2000/svg">
<path d="M7.7551 1.2C7.7551 1.16667 7.75914 1.08333 7.76722 0.95C7.7753 0.816666 7.77732 0.70625 7.77328 0.61875C7.76924 0.53125 7.75712 0.433333 7.73693 0.325C7.71673 0.216666 7.67634 0.135416 7.61575 0.0812498C7.55517 0.0270831 7.47236 -2.38419e-07 7.36735 -2.38419e-07H3.4898C2.52849 -2.38419e-07 1.70653 0.352083 1.02392 1.05625C0.341305 1.76042 0 2.60833 0 3.6V12.4C0 13.3917 0.341305 14.2396 1.02392 14.9437C1.70653 15.6479 2.52849 16 3.4898 16H7.36735C7.47236 16 7.56324 15.9604 7.63999 15.8812C7.71673 15.8021 7.7551 15.7083 7.7551 15.6C7.7551 15.5667 7.75914 15.4833 7.76722 15.35C7.7753 15.2167 7.77732 15.1062 7.77328 15.0187C7.76924 14.9312 7.75712 14.8333 7.73693 14.725C7.71673 14.6167 7.67634 14.5354 7.61575 14.4812C7.55517 14.4271 7.47236 14.4 7.36735 14.4H3.4898C2.95663 14.4 2.50021 14.2042 2.12054 13.8125C1.74086 13.4208 1.55102 12.95 1.55102 12.4V3.6C1.55102 3.05 1.74086 2.57917 2.12054 2.1875C2.50021 1.79583 2.95663 1.6 3.4898 1.6H7.27041L7.40976 1.5875L7.54911 1.55L7.64605 1.48125L7.73087 1.36875L7.7551 1.2ZM19 8C19 7.78333 18.9233 7.59583 18.7698 7.4375L12.1779 0.6375C12.0244 0.479166 11.8427 0.4 11.6327 0.4C11.4226 0.4 11.2409 0.479166 11.0874 0.6375C10.9339 0.795833 10.8571 0.983333 10.8571 1.2V4.8H5.42857C5.21854 4.8 5.03678 4.87917 4.88329 5.0375C4.7298 5.19583 4.65306 5.38333 4.65306 5.6V10.4C4.65306 10.6167 4.7298 10.8042 4.88329 10.9625C5.03678 11.1208 5.21854 11.2 5.42857 11.2H10.8571V14.8C10.8571 15.0167 10.9339 15.2042 11.0874 15.3625C11.2409 15.5208 11.4226 15.6 11.6327 15.6C11.8427 15.6 12.0244 15.5208 12.1779 15.3625L18.7698 8.5625C18.9233 8.40417 19 8.21667 19 8Z" fill="#ACACAC"/>
</svg>
